<?xml version="1.0" encoding="utf-8"?>
<!-- Generator: Adobe Illustrator 24.3.0, SVG Export Plug-In . SVG Version: 6.00 Build 0)  -->
<svg version="1.1" id="Слой_1" xmlns="http://www.w3.org/2000/svg" xmlns:xlink="http://www.w3.org/1999/xlink" x="0px" y="0px"
	 viewBox="0 0 400 220" style="enable-background:new 0 0 400 220;" xml:space="preserve">
<style type="text/css">
	.st0{fill:#1D1D1B;}
</style>
<g>
	<g>
		<g>
			<path class="st0" d="M84,112.3c-0.2-1.7-1.9-3-3.7-3c-3.4,0-4.6,2.9-4.6,5.9c0,2.9,1.3,5.7,4.6,5.7c2.3,0,3.6-1.6,3.9-3.8h3.6
				c-0.4,4.3-3.3,7-7.5,7c-5.3,0-8.4-4-8.4-8.9c0-5.1,3.1-9,8.4-9c3.8,0,6.9,2.2,7.4,6.2H84z"/>
			<path class="st0" d="M97,106.1c5.2,0,8.2,4,8.2,9c0,4.9-3.1,8.9-8.2,8.9c-5.2,0-8.2-4-8.2-8.9C88.8,110,91.8,106.1,97,106.1z
				 M97,120.8c3.3,0,4.6-2.9,4.6-5.7c0-3-1.2-5.9-4.6-5.9c-3.3,0-4.6,2.9-4.6,5.9C92.5,118,93.7,120.8,97,120.8z"/>
			<path class="st0" d="M106.5,107.1h5l3.8,11.4h0l3.6-11.4h5v16.5h-3.3v-11.7h0l-4,11.7h-2.7l-4-11.6h0v11.6h-3.3V107.1z"/>
			<path class="st0" d="M125.4,107.1h5l3.8,11.4h0l3.6-11.4h5v16.5h-3.3v-11.7h0l-4,11.7h-2.7l-4-11.6h0v11.6h-3.3V107.1z"/>
			<path class="st0" d="M145.4,107.1h12.4v3.1H149v3.5h8v2.8h-8v4.1h8.9v3.1h-12.5V107.1z"/>
		</g>
	</g>
	<g>
		<g>
			<path class="st0" d="M227.6,121.8c-1.3,1.7-3,2.3-4.6,2.3c-5.2,0-8.2-3.9-8.2-8.9c0-5.1,3.1-9,8.2-9c3.4,0,6.7,2.2,7.1,6h-3.5
				c-0.4-1.9-1.8-2.9-3.5-2.9c-3.3,0-4.6,2.9-4.6,5.9c0,2.9,1.2,5.7,4.6,5.7c2.4,0,3.8-1.3,4-3.7h-3.7v-2.8h7v9.2H228L227.6,121.8z"
				/>
			<path class="st0" d="M237.7,106.7h3.7l6.1,17.1h-3.7l-1.2-3.8h-6.1l-1.3,3.8h-3.6L237.7,106.7z M237.3,117.2h4.2l-2.1-6.3h0
				L237.3,117.2z"/>
			<path class="st0" d="M248.6,106.7h8.9c2.9,0,4.8,2.1,4.8,4.7c0,2-0.8,3.5-2.6,4.3v0.1c1.8,0.5,2.3,2.3,2.4,4c0.1,1.1,0,3.1,0.7,4
				h-3.6c-0.4-1.1-0.4-2.7-0.6-4.1c-0.3-1.8-0.9-2.6-2.7-2.6h-3.6v6.7h-3.6V106.7z M252.2,114.4h4c1.6,0,2.5-0.7,2.5-2.4
				c0-1.7-0.9-2.4-2.5-2.4h-4V114.4z"/>
			<path class="st0" d="M275.5,112.4c-0.2-1.7-1.8-3-3.7-3c-3.3,0-4.6,2.9-4.6,5.9c0,2.9,1.2,5.7,4.6,5.7c2.3,0,3.5-1.6,3.8-3.8h3.6
				c-0.4,4.3-3.3,7-7.4,7c-5.2,0-8.2-3.9-8.2-8.9c0-5.1,3.1-9,8.2-9c3.7,0,6.8,2.2,7.2,6.2H275.5z"/>
			<path class="st0" d="M288.9,106.3c5.1,0,8.2,4,8.2,9c0,4.9-3,8.9-8.2,8.9c-5.1,0-8.2-3.9-8.2-8.9
				C280.8,110.2,283.8,106.3,288.9,106.3z M288.9,121c3.3,0,4.5-2.9,4.5-5.7c0-3-1.2-5.9-4.5-5.9c-3.3,0-4.5,2.9-4.5,5.9
				C284.4,118.2,285.6,121,288.9,121z"/>
			<path class="st0" d="M299,106.7h3.6l6.9,11.5h0v-11.5h3.4v17.1h-3.6l-6.9-11.5h0v11.5H299V106.7z"/>
			<path class="st0" d="M318.1,118.1c0,2.3,1.7,3.2,3.7,3.2c1.3,0,3.3-0.4,3.3-2.1c0-1.8-2.5-2.2-5-2.8c-2.5-0.7-5-1.7-5-4.9
				c0-3.5,3.2-5.2,6.3-5.2c3.5,0,6.7,1.6,6.7,5.5h-3.6c-0.1-2.1-1.5-2.6-3.3-2.6c-1.2,0-2.5,0.5-2.5,1.9c0,1.3,0.8,1.5,5,2.6
				c1.2,0.3,5,1.1,5,5c0,3.1-2.4,5.5-7,5.5c-3.7,0-7.2-1.9-7.1-6.1H318.1z"/>
		</g>
	</g>
	<g>
		<g>
			<path class="st0" d="M272.6,128.6l2.7-1l0.6,1.8l-2.7,0.9l1.7,2.3l-1.5,1.1l-1.7-2.4l-1.6,2.4l-1.6-1.1l1.7-2.3l-2.7-0.9l0.6-1.8
				l2.6,1v-2.9h1.9V128.6z"/>
		</g>
	</g>
	<g>
		<g>
			<path class="st0" d="M176.5,121.7L176.5,121.7c-0.8,1.3-2.1,1.8-3.7,1.8c-3.6,0-5.4-3.1-5.4-6.4c0-3.2,1.8-6.2,5.3-6.2
				c1.4,0,2.8,0.6,3.6,1.8h0h0v-6h3.3v16.5h-3.1V121.7z M173.6,113.4c-2.1,0-2.9,1.9-2.9,3.8c0,1.9,0.9,3.8,2.9,3.8
				c2.2,0,2.8-1.9,2.8-3.9C176.4,115.3,175.7,113.4,173.6,113.4z"/>
			<path class="st0" d="M184.2,118.1c0.1,2.1,1.1,3,2.9,3c1.3,0,2.4-0.8,2.6-1.5h2.9c-0.9,2.8-2.9,4-5.6,4c-3.8,0-6.1-2.6-6.1-6.3
				c0-3.6,2.5-6.3,6.1-6.3c4.1,0,6,3.4,5.8,7.1H184.2z M189.6,116c-0.3-1.7-1-2.5-2.6-2.5c-2.1,0-2.7,1.6-2.7,2.5H189.6z"/>
			<path class="st0" d="M197.2,119.4c0,1.4,1.2,2,2.5,2c0.9,0,2.2-0.4,2.2-1.5c0-1-1.4-1.3-3.7-1.8c-1.9-0.4-3.8-1.1-3.8-3.2
				c0-3.1,2.6-3.8,5.2-3.8c2.6,0,5,0.9,5.3,3.8h-3.1c-0.1-1.3-1.1-1.6-2.2-1.6c-0.7,0-1.8,0.1-1.8,1.1c0,1.2,1.8,1.3,3.7,1.8
				c1.9,0.4,3.8,1.1,3.8,3.3c0,3.1-2.7,4.2-5.5,4.2c-2.8,0-5.5-1-5.6-4.2H197.2z"/>
		</g>
	</g>
</g>
</svg>
