<?xml version="1.0" encoding="utf-8"?>
<!-- Generator: Adobe Illustrator 21.0.1, SVG Export Plug-In . SVG Version: 6.00 Build 0)  -->
<svg version="1.1" id="Слой_1" xmlns="http://www.w3.org/2000/svg" xmlns:xlink="http://www.w3.org/1999/xlink" x="0px" y="0px"
	 viewBox="0 0 400 220" style="enable-background:new 0 0 400 220;" xml:space="preserve">
<polygon points="254.2,138.6 253.1,137.8 252.4,139.1 253.9,139.9 "/>
<path d="M187,176.5L187,176.5z"/>
<path d="M263.3,137.6l-1,0.2l-0.1,0.9l0.6,0.7l0.5,0.1l0.6-1.1L263.3,137.6z M260.4,139.4l-0.8,0.3l-0.1,1l0.7,0.4h0.3l0.4-1V140
	L260.4,139.4z M257,141.4l-0.6,0.6l0.2,0.6l0.7,0.3l0.6-0.6v-0.4L257,141.4z M253.9,143.7l0,0.2l0-0.4L253.9,143.7z M254.3,144.1
	h0.2v-0.2l-0.1-0.1l-0.2-0.1l-0.1,0.3l-0.1-0.1l0.1,0.4l-0.1-0.1l-0.1-0.3l-0.1,0.4l0.8,0.2L254.3,144.1L254.3,144.1 M254.3,144.1
	V144 M250.5,141.7l-1.1-0.5l-0.7,1.3v0.4l1.3,0.6l0.5-0.3l0.2-0.5v-0.4L250.5,141.7z M247.5,144.4L247.5,144.4L247.5,144.4
	L247.5,144.4l-0.3,0.7h-0.9l-0.3-0.5l0.2-0.9h1L247.5,144.4 M243.7,145.5l-0.4,0.8l0.3,0.6h0.7l0.4-0.7v-0.3L243.7,145.5z
	 M240.9,147.2l-0.6,0.6l0.3,0.8l0.3,0.1l0.7-0.3l0.2-0.3v-0.4L240.9,147.2z M238.5,149.2l-1,0.1l0.2,1l0.5,0.1l0.5-0.2l0.1-0.1
	L238.5,149.2z M237.2,145.5l-1.1-0.3l-0.8,1.7l1.2,0.9l0.8-0.4l0.3-1.5L237.2,145.5z M234.5,148.2v0.1v0.1l-0.5,0.9l-1.3-0.5l0.1-1
	l1.2-0.2l0.5,0.7 M231,149.4l-1.1,0.3l-0.1,0.9l1,0.5l0.3-0.1l0.3-0.9L231,149.4z M227.3,151.3l-0.3,1l0.9,0.6l0.5-1v-0.3
	L227.3,151.3z M227,147.9l-1.3-0.5l-0.8,1.5v0.5l1.4,0.7l0.9-1.1v-0.5L227,147.9z M224.3,153.5v0.2l0.3,0.6 M224.1,150.2l-1.3-0.5
	l-0.6,1.3l0.3,0.6l0.8,0.1l0.5-0.1l0.4-1.1L224.1,150.2z M221.1,152.3v0.2v0.1L221,153l-0.4,0.3h-0.7l-0.4-0.6l0.3-0.8l0.9-0.1
	l0.4,0.7 M217.5,154.4l-0.3-0.3 M217.3,154.9l-0.5-0.8 M263.3,137.6l-1,0.2l-0.1,0.9l0.6,0.7l0.5,0.1l0.6-1.1L263.3,137.6z
	 M260.4,139.4l-0.8,0.3l-0.1,1l0.7,0.4h0.3l0.4-1V140L260.4,139.4z M257,141.4l-0.6,0.6l0.2,0.6l0.7,0.3l0.6-0.6v-0.4L257,141.4z
	 M254.3,144.2v-0.1h0.2v-0.2l-0.1-0.1l-0.2-0.1l-0.1,0.3l-0.1-0.1l0.1,0.4l-0.1-0.1l0-0.3l0,0.4l0.8,0.2L254.3,144.2z M253.9,143.7
	l0,0.2l0-0.4L253.9,143.7z M250.5,141.7l-1.1-0.5l-0.7,1.3v0.4l1.3,0.6l0.5-0.3l0.2-0.5v-0.4L250.5,141.7z M247.5,144.5L247.5,144.5
	L247.5,144.5L247.5,144.5z M247.2,143.7h-1l-0.2,0.9l0.3,0.5h0.9l0.3-0.6L247.2,143.7z M243.7,145.5l-0.4,0.8l0.3,0.6h0.7l0.4-0.7
	v-0.3L243.7,145.5z M240.9,147.2l-0.6,0.6l0.3,0.8l0.3,0.1l0.7-0.3l0.2-0.3v-0.4L240.9,147.2z M238.5,149.2l-1,0.1l0.2,1l0.5,0.1
	l0.5-0.2l0.1-0.1L238.5,149.2z M237.2,145.5l-1.1-0.3l-0.8,1.7l1.2,0.9l0.8-0.4l0.3-1.5L237.2,145.5z M234,147.6l-1.2,0.2l-0.1,1
	l1.3,0.5l0.5-0.9v-0.1L234,147.6z M231,149.4l-1.1,0.3l-0.1,0.9l1,0.5l0.3-0.1l0.3-0.9L231,149.4z M227.3,151.3l-0.3,1l0.9,0.6
	l0.5-1v-0.3L227.3,151.3z M227,147.9l-1.3-0.5l-0.8,1.5v0.5l1.4,0.7l0.9-1.1v-0.5L227,147.9z M224.1,150.2l-1.3-0.5l-0.6,1.3
	l0.3,0.6l0.8,0.1l0.5-0.1l0.4-1.1L224.1,150.2z M220.7,151.8l-0.9,0.1l-0.3,0.8l0.4,0.6h0.7l0.4-0.3l0.1-0.4v-0.1L220.7,151.8z
	 M271.4,134.6l-0.9-1.7l-1.7-0.4c-0.8,1.8,1.8,0.8,1.3,2.5l-1.6,1.1l-1-2.1l-1.8,0.1c-1.1,1.5,1.3,1.1,1.1,2.5l-1,0.8L265,136
	l-1.5-0.7l-1.3,1.5h-1.3c-1.7,0.1-1.5,3-3.5,1.8l-1.1,1.4h-2.4l-0.8,1.8c-1.6,0.6-1.4-1.1-2-1.9l-2.4,1.5c-2.5-1.7-1.9,2.7-4.3,1.5
	l-2.4,1.8l-1.1-1.5l-1-1c-2.3,1.1,1,1.7,0.6,3.2l-1.5,0.8l-0.8-1.8l-1.5-0.7l-0.8,1.1l-1.9,0.4l-1.1,0.8l-1.6,1
	c-2,0.1,0-1.8-1.3-2.4l-1.3,0.3c-0.9,1.9,2.3,0.8,1.3,2.8l-1.5,0.8l-0.8-1.7l-1.3-0.8l-1.5,1.9c-2-1.8-2,1.6-3.7,1.3l-1.1-1.5
	l-1.2-1c-2.4,1.5,1.3,1.7,0.6,3.1l-1.5,0.9l-0.6-1.8l-1.5-0.7l-1.2,1.5h-2.3l-1.8,1.6l-0.9-1.9l-1.5-0.7l-1.2,1.7l-2.4-0.6l-0.2-1.9
	l-1.2,0.4c-1.1,1.7,1.9,1,1.3,2.6l-1.5,1l-0.6-1.8c-1.6-2.6-2.3,1.2-4,0.8l-0.8-1.3l-1.2-1.4l-1.1,1.7l1.5,0.8l-0.4,1.5
	c-2.8,0.8,0-2.8-2.2-2.5c-2-1.1-1.2,2.2-3.2,1.6c-1.6-0.4,0-2.1-1.3-2.6c-2-1-1.2,2.3-3.2,1.5c-2,0.3-0.2-1.9-1.6-2.5l-1.3,0.4
	c-1.1,2.1,2.1,0.8,1.4,2.8l-1.3,0.8l-1.1-2.4c-2-1.8-1.6,1.8-3.6,1.3l-0.8-1.8c-1.5-2.6-2.3,1.1-3.7,0.7l-1.1-1.7l-1.3-1
	c-2.7,1.9,1.9,1.6,0.9,3.3l-1.6,1l-1-2.6c-2.1-1.4-1.5,2.1-3.2,1.5c-1.6-1-1.5,1.2-2.2,1.9l-1.5-0.2l-1,1.2l1.3,1.2l1-0.9l1.5-1
	l0.8,1.7l-2.1,0.7l-0.7,1.5l1.3,1l1.4-1.8l1.7,0.7l-0.3,1.8l-1.5-0.2l-0.7,1l0.9,1l1.5-1.4l1.7,0.7v1.7l2,1.1v-0.2l0.1-0.3l1.3-1.6
	l1.5,1.2v0.4L175,162l-0.7,0.4l-1.3-0.2l-0.4-0.3v1.8c2,2.6,1.5-1.8,3.6-0.9l0.8,1.5l-2,0.8c0.8,2.1,1.8-0.4,3.2,0.7l0.5,1.5
	l1.9,1.1l0.4-0.5l1.5-1l0.8,1.5c-1,1.9,1.8,1.1,2.5,2.4c0.1,2.3,1.7-0.1,2.8,0.3l1.6,1.5c0.6,2.1,1.9-0.4,2.8-0.3l2.1,2.1l2.7-0.8
	l1.7,2l1.8-0.7l2.5,0.6l-0.6,1.6l-2.4-0.2l-1.7,1.2l-1.3-1.9c-1.6-1.1-1.8,1.8-3.3,1.1l-1.2-1.9c-1.6-1.3-1.8,1.5-3.3,0.9l-1.5-2.1
	c-1.6-1.1-1.5,1.5-2.9,0.9l-1.4-1.9c-1.5-1.5-1.7,1.1-3.2,0.7l-0.9-1.4c-0.8-2.5-2.5,0-3.7,0l-1.3-2.4c-1.3-1.5-2,0.8-3.1,0.9
	l-0.8-1.4l1.5-0.4l0.4-0.6c-0.9-1.7-1.8,0.7-3.1-0.2l-1.7-2.4l-1.7,0.7c-1.9,0.8-1.5-1.7-2.4-2.4c-1.9,0.1-0.9-2.1-2.2-2.8l-2.6,0.8
	l-0.9-2.2c-1.7,0.1-1.7-1.8-2.5-2.9c-1.7,0.1-1.3-1.9-2.6-2.5l-1.1,0.4l-1.5-0.2l0.8-2.1c-0.7-1.2-2.1,0.5-2.8-1
	c0.3-1.7-0.6-2.1-1.8-2.6c-0.1-2.1-2.4-2.4-3-4.2l-2.3,0.1l-0.9-1.9l-0.9-0.3l-0.6,1c1.4,3.9,3.8,7.5,6.1,11.1
	c2,2.9,4.2,5.2,6.5,7.8l2.9,2.9c9.9,9.5,22,15,35,17.9c2,0,3.7,1.4,5.6,0.6c2,1.4,4.9,0.3,7.1,1.2h3.3c1.8-0.7,4,0.2,5.6-0.6
	c3.6-0.4,7.2-0.8,10.5-1.7c2.8-0.5,5.5-1.3,8.2-2.1l4.7-2.2c6.4-2.7,12.6-6.6,18-11.4c1.6-1.5,3.6-3.1,4.9-5
	c5-4.8,8.6-10.8,11.9-16.7c0.8-3.2,2.7-5.9,3.3-9.2C272.5,135.3,273.2,133.7,271.4,134.6z M185.3,152.5l1.1,0.4v0.1l-0.1,0.8
	l-0.7,0.4l-0.4-0.2l-0.6-0.5L185.3,152.5z M180.3,151.2l1.2-0.2l0.6,0.8l0.1,0.4l-0.6,0.9h-0.4l-1-0.2l-0.2-0.5L180.3,151.2z
	 M180,156.3l0.4,0.5v0.6l-0.7,0.3l-0.3-0.1l-0.2-1L180,156.3z M178.5,153l0.5,0.7l0-0.1v0.2l0-0.1l-0.4,1l-0.3,0.1l-0.9-0.4
	l-0.1-0.4l0.2-0.9L178.5,153z M176.1,149.4h0.4l1.2,0.9v1.1l-1,0.8l-1.5-1.2L176.1,149.4z M167.4,151.7l0.1-0.5l0.9-1.2l1.3,0.2
	l0.6,0.9v0.1l-0.6,1.4l-0.9,0.3L167.4,151.7z M169.4,154.6l1.1-1.3l1.3,1.1l-0.4,1l-0.8,0.4L169.4,154.6z M172.6,158.6l-0.8-0.1
	l-0.6-0.8l0.8-1.4l1.4,0.5l0.1,0.3L172.6,158.6z M172.7,153.4l-0.2-0.5v-0.3l-0.1-0.4l0.7-0.6l1.1,0.1l0.4,0.8v0.2l-0.7,1
	L172.7,153.4z M176,155.5l-0.6,1.1l-1.1-0.8l0.8-0.9L176,155.5L176,155.5z M176.1,159.1l0.4-1.1l1.3,0.3v0.2l-0.6,1L176.1,159.1z
	 M178.5,162.9l-0.7-0.2l-0.4-0.5l0.8-1.5l0.9,0.1l0.4,0.8v0.2l-0.3,0.8L178.5,162.9z M181.2,165.9l-0.6,0.3l-1.2-0.3l-0.5-1.1l1-1.3
	l1.8,1.2L181.2,165.9z M182.1,160.5l-0.4,0.2h-0.4l-0.2-1.1l0.6-0.1l0.5,0.4L182.1,160.5z M182.8,154.6l0.6,0.5v0.5l-0.7,0.3
	l-0.3-0.1l-0.2-0.8L182.8,154.6z M182.3,163.3l0.4-1l1-0.1l0.4,0.7l-0.8,1.1L182.3,163.3z M184,167l-0.3-0.7l0.9-1.3l0.8,0.1
	l0.6,0.7v0.3l-1,1.3L184,167z M187.9,168.7l-0.4,1.3l-1.1,0.2l-1-1.1l1-1.4l1.5,0.9V168.7z M187.5,157.1l-0.7-0.2v-0.7h0.7l0.5,0.6
	L187.5,157.1z M187.5,151.8l0.8-1.5l1.3,0.4l0.2,0.6v0.3l-0.2,0.6l-0.8,0.4L187.5,151.8z M190.1,153.9l0.9,0.5v-0.1l0.1,0.1l0.1,0.3
	l-0.3,0.6l-0.4,0.1l-0.9-0.5L190.1,153.9z M192.3,170.9l-0.8,0.6l-1.2-0.3l-0.2-0.7l0.2-1l0.8-0.4l1.3,1L192.3,170.9z M194.1,152.9
	l-0.8,1l-1-0.8l0.3-1l1.1-0.1l0.4,0.8V152.9z M195.2,156.5l-0.3,0.1l-0.7-0.5l0.1-0.8h1l0.2,0.4L195.2,156.5z M198.6,154l-0.5,1
	l-0.3,0.1l-0.9-0.7l0.6-1.2l0.6,0.1l0.5,0.5V154z M200,157.5l-0.7,0.3l-0.3-0.1l-0.1-0.9l0.8-0.3l0.3,0.5V157.5z M200.9,153.3
	l-1.3-0.8l0.8-1.2l1.1,0.3l0.2,0.7L200.9,153.3z M202.9,155.8l-0.6,0.2l-0.6-0.3l-0.1-0.3l0.4-0.6h0.8l0.2,0.2L202.9,155.8z
	 M153.9,157l-0.2,0.7l-0.8,0.4l-0.9-0.6l0.8-1.5l1.1,0.8V157z M167.9,169l-1.1,0.5l-0.3-1.4l0.7-0.4l0.8,0.6l0.1,0.3L167.9,169z
	 M173.8,173.5l-0.4,0.1l-0.5-0.3l0.3-1l0.5,0.2l0.2,0.6L173.8,173.5z M178.1,175.1l-0.9-0.6l0.2-1l1-0.1l0.3,0.6l0.1,0.1
	L178.1,175.1z M183.2,175.9l-0.7,0.2l-0.8-0.4l0.8-1.5l0.9,0.8L183.2,175.9z M187.7,176.9l-0.4,0.3l-0.6-0.2l-0.1-0.8l0.2-0.4
	l0.9,0.3V176.9z M206,154l-0.7,0.5l-0.9-0.7l0.3-0.8l1.1-0.1l0.4,0.6L206,154z M207.3,157.2l-0.5,0.1l-0.5-0.5l0.3-0.8h0.7l0.2,0.7
	L207.3,157.2z M208.9,152.6l-0.6,0.2l-1.2-0.5v-0.7l0.6-1l1,0.2l0.4,0.7l-0.2,0.9V152.6z M210.6,154.8l-0.4,0.7l-0.3,0.1l-0.8-0.5
	l0.3-0.7l0.6-0.1L210.6,154.8L210.6,154.8z M213.6,153l-0.1,0.5l-0.7,0.4l-0.4-0.2l-0.5-0.5l0.2-0.9l1-0.2L213.6,153L213.6,153z
	 M216.8,151.3l-0.3,0.6l-0.6,0.4l-0.8-0.1l-0.5-0.8l0.3-1l1.3-0.2l0.6,0.9V151.3z M225.1,153.7l-0.1,0.2h-0.1v-0.1l-0.1,0.2v-0.3
	l0.1,0.1v-0.2h0.1l0.1-0.1V153.7z"/>
<polygon points="187,176.5 187,176.5 187,176.5 187.1,176.4 187,176.4 "/>
<polygon points="165.3,149.1 166.1,148 164.7,146.9 163.9,148.2 "/>
<polygon points="163.4,145.5 163.6,144.8 162.7,145.1 "/>
<polygon points="175.3,146.3 175.6,145.6 175.4,145.3 "/>
<polygon points="168.1,147 168.5,146.2 167.8,145.4 167.1,146.5 "/>
<polygon points="160.5,147.4 161.1,146.7 159.7,146.8 "/>
<polygon points="180,148 180.8,146.9 179.4,146.6 "/>
<polygon points="172.5,161.4 172.5,161.5 172.6,161.4 "/>
<polygon points="157.7,149 158.1,148.3 157,148.5 "/>
<polygon points="162.2,150.7 163.2,149.3 162,148.7 161.2,149.7 "/>
<polygon points="159.8,151.8 159.9,151.2 159.2,150.7 "/>
<polygon points="243.2,141.5 243.6,140.9 242.9,140.3 242.3,141.1 "/>
<polygon points="245.9,139.8 246.3,139.2 245.8,138.8 "/>
<polygon points="232.6,144.1 233.2,143.1 231.7,143.4 "/>
<polygon points="225.4,143.9 225,143.6 224.9,144.3 "/>
<polygon points="256.3,137.5 256.9,136.9 255.5,137 "/>
<polygon points="187.5,147.1 188,146.4 187.4,146 187,146.7 "/>
<polygon points="259.4,135.1 258.7,135.4 259.2,135.6 "/>
<polygon points="271.6,131.5 272.4,132 272.9,131.2 "/>
<polygon points="207.7,146.7 207,146.2 206.7,147.1 "/>
<polygon points="199.6,147.9 200.3,147.1 198.8,147.2 "/>
<polygon points="211.9,149 212.6,147.6 211.4,146.9 210.7,148.1 "/>
<polygon points="192,148.7 192.8,147.6 191.9,146.9 191.2,148 "/>
<polygon points="222.2,146.3 222.9,145.5 222,144.9 221.4,145.6 "/>
<polygon points="214.6,146.7 215.1,146 214.1,146.3 "/>
<path d="M221.1,152.4L221.1,152.4z"/>
<path d="M221.1,152.4L221.1,152.4z"/>
<polygon points="254.2,138.6 253.1,137.8 252.4,139.1 253.9,139.9 "/>
<path d="M187,176.5L187,176.5z"/>
<path d="M263.3,137.6l-1,0.2l-0.1,0.9l0.6,0.7l0.5,0.1l0.6-1.1L263.3,137.6z M260.4,139.4l-0.8,0.3l-0.1,1l0.7,0.4h0.3l0.4-1V140
	L260.4,139.4z M257,141.4l-0.6,0.6l0.2,0.6l0.7,0.3l0.6-0.6v-0.4L257,141.4z M253.9,143.7l0,0.2l0-0.4L253.9,143.7z M254.3,144.2
	v-0.1h0.2v-0.2l-0.1-0.1l-0.2-0.1l-0.1,0.3l-0.1-0.1l0.1,0.4l-0.1-0.1l0-0.3l0,0.4l0.8,0.2L254.3,144.2z M254.3,144.1V144
	 M250.5,141.7l-1.1-0.5l-0.7,1.3v0.4l1.3,0.6l0.5-0.3l0.2-0.5v-0.4L250.5,141.7z M247.5,144.4L247.5,144.4L247.5,144.4L247.5,144.4
	l-0.3,0.7h-0.9l-0.3-0.5l0.2-0.9h1L247.5,144.4 M243.7,145.5l-0.4,0.8l0.3,0.6h0.7l0.4-0.7v-0.3L243.7,145.5z M240.9,147.2l-0.6,0.6
	l0.3,0.8l0.3,0.1l0.7-0.3l0.2-0.3v-0.4L240.9,147.2z M238.5,149.2l-1,0.1l0.2,1l0.5,0.1l0.5-0.2l0.1-0.1L238.5,149.2z M237.2,145.5
	l-1.1-0.3l-0.8,1.7l1.2,0.9l0.8-0.4l0.3-1.5L237.2,145.5z M234.5,148.2v0.1v0.1l-0.5,0.9l-1.3-0.5l0.1-1l1.2-0.2l0.5,0.7 M231,149.4
	l-1.1,0.3l-0.1,0.9l1,0.5l0.3-0.1l0.3-0.9L231,149.4z M227.3,151.3l-0.3,1l0.9,0.6l0.5-1v-0.3L227.3,151.3z M227,147.9l-1.3-0.5
	l-0.8,1.5v0.5l1.4,0.7l0.9-1.1v-0.5L227,147.9z M224.3,153.5v0.2l0.3,0.6 M224.1,150.2l-1.3-0.5l-0.6,1.3l0.3,0.6l0.8,0.1l0.5-0.1
	l0.4-1.1L224.1,150.2z M221.1,152.3v0.2v0.1L221,153l-0.4,0.3h-0.7l-0.4-0.6l0.3-0.8l0.9-0.1l0.4,0.7 M217.5,154.4l-0.3-0.3
	 M217.3,154.9l-0.5-0.8 M263.3,137.6l-1,0.2l-0.1,0.9l0.6,0.7l0.5,0.1l0.6-1.1L263.3,137.6z M260.4,139.4l-0.8,0.3l-0.1,1l0.7,0.4
	h0.3l0.4-1V140L260.4,139.4z M257,141.4l-0.6,0.6l0.2,0.6l0.7,0.3l0.6-0.6v-0.4L257,141.4z M254.3,144.2v-0.1h0.2v-0.2l-0.1-0.1
	l-0.2-0.1l-0.1,0.3l-0.1-0.1l0.1,0.4l-0.1-0.1l0-0.3l0,0.4l0.8,0.2L254.3,144.2z M253.9,143.7l0,0.2l0-0.4L253.9,143.7z
	 M250.5,141.7l-1.1-0.5l-0.7,1.3v0.4l1.3,0.6l0.5-0.3l0.2-0.5v-0.4L250.5,141.7z M247.5,144.5L247.5,144.5L247.5,144.5L247.5,144.5z
	 M247.2,143.7h-1l-0.2,0.9l0.3,0.5h0.9l0.3-0.6L247.2,143.7z M243.7,145.5l-0.4,0.8l0.3,0.6h0.7l0.4-0.7v-0.3L243.7,145.5z
	 M240.9,147.2l-0.6,0.6l0.3,0.8l0.3,0.1l0.7-0.3l0.2-0.3v-0.4L240.9,147.2z M238.5,149.2l-1,0.1l0.2,1l0.5,0.1l0.5-0.2l0.1-0.1
	L238.5,149.2z M237.2,145.5l-1.1-0.3l-0.8,1.7l1.2,0.9l0.8-0.4l0.3-1.5L237.2,145.5z M234,147.6l-1.2,0.2l-0.1,1l1.3,0.5l0.5-0.9
	v-0.1L234,147.6z M231,149.4l-1.1,0.3l-0.1,0.9l1,0.5l0.3-0.1l0.3-0.9L231,149.4z M227.3,151.3l-0.3,1l0.9,0.6l0.5-1v-0.3
	L227.3,151.3z M227,147.9l-1.3-0.5l-0.8,1.5v0.5l1.4,0.7l0.9-1.1v-0.5L227,147.9z M224.1,150.2l-1.3-0.5l-0.6,1.3l0.3,0.6l0.8,0.1
	l0.5-0.1l0.4-1.1L224.1,150.2z M220.7,151.8l-0.9,0.1l-0.3,0.8l0.4,0.6h0.7l0.4-0.3l0.1-0.4v-0.1L220.7,151.8z M271.4,134.6
	l-0.9-1.7l-1.7-0.4c-0.8,1.8,1.8,0.8,1.3,2.5l-1.6,1.1l-1-2.1l-1.8,0.1c-1.1,1.5,1.3,1.1,1.1,2.5l-1,0.8L265,136l-1.5-0.7l-1.3,1.5
	h-1.3c-1.7,0.1-1.5,3-3.5,1.8l-1.1,1.4h-2.4l-0.8,1.8c-1.6,0.6-1.4-1.1-2-1.9l-2.4,1.5c-2.5-1.7-1.9,2.7-4.3,1.5l-2.4,1.8l-1.1-1.5
	l-1-1c-2.3,1.1,1,1.7,0.6,3.2l-1.5,0.8l-0.8-1.8l-1.5-0.7l-0.8,1.1l-1.9,0.4l-1.1,0.8l-1.6,1c-2,0.1,0-1.8-1.3-2.4l-1.3,0.3
	c-0.9,1.9,2.3,0.8,1.3,2.8l-1.5,0.8l-0.8-1.7l-1.3-0.8l-1.5,1.9c-2-1.8-2,1.6-3.7,1.3l-1.1-1.5l-1.2-1c-2.4,1.5,1.3,1.7,0.6,3.1
	l-1.5,0.9l-0.6-1.8l-1.5-0.7l-1.2,1.5h-2.3l-1.8,1.6l-0.9-1.9l-1.5-0.7l-1.2,1.7l-2.4-0.6l-0.2-1.9l-1.2,0.4c-1.1,1.7,1.9,1,1.3,2.6
	l-1.5,1l-0.6-1.8c-1.6-2.6-2.3,1.2-4,0.8l-0.8-1.3l-1.2-1.4l-1.1,1.7l1.5,0.8l-0.4,1.5c-2.8,0.8,0-2.8-2.2-2.5
	c-2-1.1-1.2,2.2-3.2,1.6c-1.6-0.4,0-2.1-1.3-2.6c-2-1-1.2,2.3-3.2,1.5c-2,0.3-0.2-1.9-1.6-2.5l-1.3,0.4c-1.1,2.1,2.1,0.8,1.4,2.8
	l-1.3,0.8l-1.1-2.4c-2-1.8-1.6,1.8-3.6,1.3l-0.8-1.8c-1.5-2.6-2.3,1.1-3.7,0.7l-1.1-1.7l-1.3-1c-2.7,1.9,1.9,1.6,0.9,3.3l-1.6,1
	l-1-2.6c-2.1-1.4-1.5,2.1-3.2,1.5c-1.6-1-1.5,1.2-2.2,1.9l-1.5-0.2l-1,1.2l1.3,1.2l1-0.9l1.5-1l0.8,1.7l-2.1,0.7l-0.7,1.5l1.3,1
	l1.4-1.8l1.7,0.7l-0.3,1.8l-1.5-0.2l-0.7,1l0.9,1l1.5-1.4l1.7,0.7v1.7l2,1.1v-0.2l0.1-0.3l1.3-1.6l1.5,1.2v0.4L175,162l-0.7,0.4
	l-1.3-0.2l-0.4-0.3v1.8c2,2.6,1.5-1.8,3.6-0.9l0.8,1.5l-2,0.8c0.8,2.1,1.8-0.4,3.2,0.7l0.5,1.5l1.9,1.1l0.4-0.5l1.5-1l0.8,1.5
	c-1,1.9,1.8,1.1,2.5,2.4c0.1,2.3,1.7-0.1,2.8,0.3l1.6,1.5c0.6,2.1,1.9-0.4,2.8-0.3l2.1,2.1l2.7-0.8l1.7,2l1.8-0.7l2.5,0.6l-0.6,1.6
	l-2.4-0.2l-1.7,1.2l-1.3-1.9c-1.6-1.1-1.8,1.8-3.3,1.1l-1.2-1.9c-1.6-1.3-1.8,1.5-3.3,0.9l-1.5-2.1c-1.6-1.1-1.5,1.5-2.9,0.9
	l-1.4-1.9c-1.5-1.5-1.7,1.1-3.2,0.7l-0.9-1.4c-0.8-2.5-2.5,0-3.7,0l-1.3-2.4c-1.3-1.5-2,0.8-3.1,0.9l-0.8-1.4l1.5-0.4l0.4-0.6
	c-0.9-1.7-1.8,0.7-3.1-0.2l-1.7-2.4l-1.7,0.7c-1.9,0.8-1.5-1.7-2.4-2.4c-1.9,0.1-0.9-2.1-2.2-2.8l-2.6,0.8l-0.9-2.2
	c-1.7,0.1-1.7-1.8-2.5-2.9c-1.7,0.1-1.3-1.9-2.6-2.5l-1.1,0.4l-1.5-0.2l0.8-2.1c-0.7-1.2-2.1,0.5-2.8-1c0.3-1.7-0.6-2.1-1.8-2.6
	c-0.1-2.1-2.4-2.4-3-4.2l-2.3,0.1l-0.9-1.9l-0.9-0.3l-0.6,1c1.4,3.9,3.8,7.5,6.1,11.1c2,2.9,4.2,5.2,6.5,7.8l2.9,2.9
	c9.9,9.5,22,15,35,17.9c2,0,3.7,1.4,5.6,0.6c2,1.4,4.9,0.3,7.1,1.2h3.3c1.8-0.7,4,0.2,5.6-0.6c3.6-0.4,7.2-0.8,10.5-1.7
	c2.8-0.5,5.5-1.3,8.2-2.1l4.7-2.2c6.4-2.7,12.6-6.6,18-11.4c1.6-1.5,3.6-3.1,4.9-5c5-4.8,8.6-10.8,11.9-16.7
	c0.8-3.2,2.7-5.9,3.3-9.2C272.5,135.3,273.2,133.7,271.4,134.6z M185.3,152.5l1.1,0.4v0.1l-0.1,0.8l-0.7,0.4l-0.4-0.2l-0.6-0.5
	L185.3,152.5z M180.3,151.2l1.2-0.2l0.6,0.8l0.1,0.4l-0.6,0.9h-0.4l-1-0.2l-0.2-0.5L180.3,151.2z M180,156.3l0.4,0.5v0.6l-0.7,0.3
	l-0.3-0.1l-0.2-1L180,156.3z M178.5,153l0.5,0.7l0-0.1v0.2l0-0.1l-0.4,1l-0.3,0.1l-0.9-0.4l-0.1-0.4l0.2-0.9L178.5,153z
	 M176.1,149.4h0.4l1.2,0.9v1.1l-1,0.8l-1.5-1.2L176.1,149.4z M167.4,151.7l0.1-0.5l0.9-1.2l1.3,0.2l0.6,0.9v0.1l-0.6,1.4l-0.9,0.3
	L167.4,151.7z M169.4,154.6l1.1-1.3l1.3,1.1l-0.4,1l-0.8,0.4L169.4,154.6z M172.6,158.6l-0.8-0.1l-0.6-0.8l0.8-1.4l1.4,0.5l0.1,0.3
	L172.6,158.6z M172.7,153.4l-0.2-0.5v-0.3l-0.1-0.4l0.7-0.6l1.1,0.1l0.4,0.8v0.2l-0.7,1L172.7,153.4z M176,155.5l-0.6,1.1l-1.1-0.8
	l0.8-0.9L176,155.5L176,155.5z M176.1,159.1l0.4-1.1l1.3,0.3v0.2l-0.6,1L176.1,159.1z M178.5,162.9l-0.7-0.2l-0.4-0.5l0.8-1.5
	l0.9,0.1l0.4,0.8v0.2l-0.3,0.8L178.5,162.9z M181.2,165.9l-0.6,0.3l-1.2-0.3l-0.5-1.1l1-1.3l1.8,1.2L181.2,165.9z M182.1,160.5
	l-0.4,0.2h-0.4l-0.2-1.1l0.6-0.1l0.5,0.4L182.1,160.5z M182.8,154.6l0.6,0.5v0.5l-0.7,0.3l-0.3-0.1l-0.2-0.8L182.8,154.6z
	 M182.3,163.3l0.4-1l1-0.1l0.4,0.7l-0.8,1.1L182.3,163.3z M184,167l-0.3-0.7l0.9-1.3l0.8,0.1l0.6,0.7v0.3l-1,1.3L184,167z
	 M187.9,168.7l-0.4,1.3l-1.1,0.2l-1-1.1l1-1.4l1.5,0.9V168.7z M187.5,157.1l-0.7-0.2v-0.7h0.7l0.5,0.6L187.5,157.1z M187.5,151.8
	l0.8-1.5l1.3,0.4l0.2,0.6v0.3l-0.2,0.6l-0.8,0.4L187.5,151.8z M190.1,153.9l0.9,0.5v-0.1l0.1,0.1l0.1,0.3l-0.3,0.6l-0.4,0.1
	l-0.9-0.5L190.1,153.9z M192.3,170.9l-0.8,0.6l-1.2-0.3l-0.2-0.7l0.2-1l0.8-0.4l1.3,1L192.3,170.9z M194.1,152.9l-0.8,1l-1-0.8
	l0.3-1l1.1-0.1l0.4,0.8V152.9z M195.2,156.5l-0.3,0.1l-0.7-0.5l0.1-0.8h1l0.2,0.4L195.2,156.5z M198.6,154l-0.5,1l-0.3,0.1l-0.9-0.7
	l0.6-1.2l0.6,0.1l0.5,0.5V154z M200,157.5l-0.7,0.3l-0.3-0.1l-0.1-0.9l0.8-0.3l0.3,0.5V157.5z M200.9,153.3l-1.3-0.8l0.8-1.2
	l1.1,0.3l0.2,0.7L200.9,153.3z M202.9,155.8l-0.6,0.2l-0.6-0.3l-0.1-0.3l0.4-0.6h0.8l0.2,0.2L202.9,155.8z M153.9,157l-0.2,0.7
	l-0.8,0.4l-0.9-0.6l0.8-1.5l1.1,0.8V157z M167.9,169l-1.1,0.5l-0.3-1.4l0.7-0.4l0.8,0.6l0.1,0.3L167.9,169z M173.8,173.5l-0.4,0.1
	l-0.5-0.3l0.3-1l0.5,0.2l0.2,0.6L173.8,173.5z M178.1,175.1l-0.9-0.6l0.2-1l1-0.1l0.3,0.6l0.1,0.1L178.1,175.1z M183.2,175.9
	l-0.7,0.2l-0.8-0.4l0.8-1.5l0.9,0.8L183.2,175.9z M187.7,176.9l-0.4,0.3l-0.6-0.2l-0.1-0.8l0.2-0.4l0.9,0.3V176.9z M206,154
	l-0.7,0.5l-0.9-0.7l0.3-0.8l1.1-0.1l0.4,0.6L206,154z M207.3,157.2l-0.5,0.1l-0.5-0.5l0.3-0.8h0.7l0.2,0.7L207.3,157.2z
	 M208.9,152.6l-0.6,0.2l-1.2-0.5v-0.7l0.6-1l1,0.2l0.4,0.7l-0.2,0.9V152.6z M210.6,154.8l-0.4,0.7l-0.3,0.1l-0.8-0.5l0.3-0.7
	l0.6-0.1L210.6,154.8L210.6,154.8z M213.6,153l-0.1,0.5l-0.7,0.4l-0.4-0.2l-0.5-0.5l0.2-0.9l1-0.2L213.6,153L213.6,153z
	 M216.8,151.3l-0.3,0.6l-0.6,0.4l-0.8-0.1l-0.5-0.8l0.3-1l1.3-0.2l0.6,0.9V151.3z M225.1,153.7l-0.1,0.2h-0.1v-0.1l-0.1,0.2v-0.3
	l0.1,0.1v-0.2h0.1l0.1-0.1V153.7z"/>
<polygon points="187,176.5 187,176.5 187,176.5 187.1,176.4 187,176.4 "/>
<polygon points="165.3,149.1 166.1,148 164.7,146.9 163.9,148.2 "/>
<polygon points="163.4,145.5 163.6,144.8 162.7,145.1 "/>
<polygon points="175.3,146.3 175.6,145.6 175.4,145.3 "/>
<polygon points="168.1,147 168.5,146.2 167.8,145.4 167.1,146.5 "/>
<polygon points="160.5,147.4 161.1,146.7 159.7,146.8 "/>
<polygon points="180,148 180.8,146.9 179.4,146.6 "/>
<polygon points="172.5,161.4 172.5,161.5 172.6,161.4 "/>
<polygon points="157.7,149 158.1,148.3 157,148.5 "/>
<polygon points="162.2,150.7 163.2,149.3 162,148.7 161.2,149.7 "/>
<polygon points="159.8,151.8 159.9,151.2 159.2,150.7 "/>
<polygon points="243.2,141.5 243.6,140.9 242.9,140.3 242.3,141.1 "/>
<polygon points="245.9,139.8 246.3,139.2 245.8,138.8 "/>
<polygon points="232.6,144.1 233.2,143.1 231.7,143.4 "/>
<polygon points="225.4,143.9 225,143.6 224.9,144.3 "/>
<polygon points="256.3,137.5 256.9,136.9 255.5,137 "/>
<polygon points="187.5,147.1 188,146.4 187.4,146 187,146.7 "/>
<polygon points="259.4,135.1 258.7,135.4 259.2,135.6 "/>
<polygon points="271.6,131.5 272.4,132 272.9,131.2 "/>
<polygon points="207.7,146.7 207,146.2 206.7,147.1 "/>
<polygon points="199.6,147.9 200.3,147.1 198.8,147.2 "/>
<polygon points="211.9,149 212.6,147.6 211.4,146.9 210.7,148.1 "/>
<polygon points="192,148.7 192.8,147.6 191.9,146.9 191.2,148 "/>
<polygon points="222.2,146.3 222.9,145.5 222,144.9 221.4,145.6 "/>
<polygon points="214.6,146.7 215.1,146 214.1,146.3 "/>
<path d="M173.2,192.7l0.8,2.6l-2.5,0.4c-1.1-0.5-1.6-0.9-0.9-2.7l0.8-0.4h1.1L173.2,192.7z"/>
<path d="M174.3,188.9l0.9,1.2l-1.5,0.9l-1.2,0.2l-0.9-0.1l-0.2-0.7C172.1,188.6,172.9,188.3,174.3,188.9z"/>
<path d="M182.8,193.8l-2.4,1.8l1.2,2.8l2.5-1.8L182.8,193.8z M182.8,193.8l-2.4,1.8l1.2,2.8l2.5-1.8L182.8,193.8z M182.8,193.8
	l-2.4,1.8l1.2,2.8l2.5-1.8L182.8,193.8z M182.8,193.8l-2.4,1.8l1.2,2.8l2.5-1.8L182.8,193.8z M182.8,193.8l-2.4,1.8l1.2,2.8l2.5-1.8
	L182.8,193.8z M182.8,193.8l-2.4,1.8l1.2,2.8l2.5-1.8L182.8,193.8z M182.8,193.8l-2.4,1.8l1.2,2.8l2.5-1.8L182.8,193.8z
	 M230.1,190.2l-1,1.7l1.8,0.7l1-1.7L230.1,190.2z M232.1,196.1l-1,2.2l2.5,0.5l1-2.2L232.1,196.1z M232.1,196.1l-1,2.2l2.5,0.5
	l1-2.2L232.1,196.1z M230.1,190.2l-1,1.7l1.8,0.7l1-1.7L230.1,190.2z M182.8,193.8l-2.4,1.8l1.2,2.8l2.5-1.8L182.8,193.8z
	 M182.8,193.8l-2.4,1.8l1.2,2.8l2.5-1.8L182.8,193.8z M230.1,190.2l-1,1.7l1.8,0.7l1-1.7L230.1,190.2z M232.1,196.1l-1,2.2l2.5,0.5
	l1-2.2L232.1,196.1z M232.1,196.1l-1,2.2l2.5,0.5l1-2.2L232.1,196.1z M230.1,190.2l-1,1.7l1.8,0.7l1-1.7L230.1,190.2z M182.8,193.8
	l-2.4,1.8l1.2,2.8l2.5-1.8L182.8,193.8z M182.8,193.8l-2.4,1.8l1.2,2.8l2.5-1.8L182.8,193.8z M230.1,190.2l-1,1.7l1.8,0.7l1-1.7
	L230.1,190.2z M232.1,196.1l-1,2.2l2.5,0.5l1-2.2L232.1,196.1z M232.1,196.1l-1,2.2l2.5,0.5l1-2.2L232.1,196.1z M230.1,190.2l-1,1.7
	l1.8,0.7l1-1.7L230.1,190.2z M182.8,193.8l-2.4,1.8l1.2,2.8l2.5-1.8L182.8,193.8z M279.8,128.9c-5.9,34.3-37.6,60.4-75.9,60.4
	c-32.7,0-60.7-19.2-71.8-46.2h-11.5c10.8,37.7,44.1,65.3,83.4,65.3c45.3,0,82.5-36.3,86.4-82.8L279.8,128.9z M177.5,190.8l-2.5,1.7
	c-0.2,0.4,1.8,2.3,1,4.2c-0.4,1.1-1.7,1.9-4,0.9l-4.2-1.7c-0.4-0.1-0.9-0.1,0.8-4.4c2.2-5.7,2.9-5.2,3.1-5.1l3.6,1.5
	C177.8,188.9,177.8,190,177.5,190.8z M185.8,197.4c-0.7,2.8-3,3.5-4.7,3c-1.7-0.5-3.4-2.2-2.6-5c0.5-1.9,2.2-3.7,4.7-3
	C185.7,193.1,186.3,195.5,185.8,197.4z M192.5,202.7c-1.6-0.2-0.3-0.7-1.1-0.9l-0.8,0.3l-1.2,0.1c-1.2-0.2-2.3-1-1.8-4.5l1.3-3.8
	l1.4,0.2l0.6,0.3c0,0.2-0.9,1.3-1.2,3.6l0.9,2.8c0.5,0.1,1.6,0.1,2-2.5v-3.6l0.5-0.1l1.4,0.2l0.1,3.8
	C193.9,203.1,193.6,202.8,192.5,202.7z M202.8,203.3l-1.2-0.1L201,203c0-0.1,0.8-1.8,0.9-4.3l-1-2c-0.6,0-1.8,0.3-1.9,2.7l0.3,3.6
	l-0.4,0.1h-1.3c-0.6,0-0.8,0.2-0.7-3.1c0.2-5.6,0.7-5.2,1.9-5.2l1.1,0.3l-0.1,0.5l0.2,0.2l1.9-0.5c0.4,0,2.2,0.2,2.1,3.4
	C203.8,203.6,203.4,203.3,202.8,203.3z M209.9,203.2c-2.6,0.2-3.8-1.7-3.9-3.5c-0.1-2.1,1-4.7,4-4.9l2.3,1.1l-0.8,1.2l-1.6-0.8
	c-1.6,0.1-2,1.8-1.9,2.9l2.3,2.1c1.7-0.1,1.9-1.4,2.1-1.4l0.3,0.7C212.8,202.1,211.7,203.1,209.9,203.2z M214.8,191.9l1.3,0.7
	l-1.1,1l-1.2-0.7L214.8,191.9z M216.8,202.2l-1,0.2c-0.8,0.1-0.8,0.3-1.4-4c-0.6-4.2-0.3-3.8,0.2-3.9l0.8-0.1l0.7,0.1l0.1,2.3
	c0.4,3.1,1.3,4.9,1.3,5L216.8,202.2z M226,200.3l-1.4,0.3l-0.6-0.1c0-0.1,0.4-1.9-0.2-4.3l-1.5-1.7c-0.6,0.1-1.7,0.7-1.1,3.1
	l1.2,3.4l-0.4,0.2l-1.2,0.3c-0.5,0.1-0.7,0.4-1.4-2.8c-1.2-5.5-0.6-5.2,0.5-5.5h1.1v0.5l0.3,0.2l1.8-1c0.4-0.1,2.1-0.5,2.8,2.7
	C227,200.4,226.5,200.2,226,200.3z M234.7,200.2c-1.9,0.9-4,0.8-4.8-0.6l-0.2-1.8l-1.4-0.9l1-2.4l-1.8-1.7c-0.6-1.6,0.3-2.9,2.2-3.6
	l0.9-0.2l1.2-1.7l1.5,0.6l-1.1,1.1l1.4,1.6c0.4,1.2-0.1,2.8-2.2,3.6l-1.5,1.4l0.4,0.2l1.3-0.9c2.3-1.2,4.1-0.2,4.8,1l0.3,2.3
	L234.7,200.2z M231.1,198.3l2.5,0.5l1-2.2l-2.5-0.5L231.1,198.3z M231.9,190.9l-1.8-0.7l-1,1.7l1.8,0.7L231.9,190.9z M180.4,195.6
	l1.2,2.8l2.5-1.8l-1.3-2.8L180.4,195.6z M182.8,193.8l-2.4,1.8l1.2,2.8l2.5-1.8L182.8,193.8z M230.1,190.2l-1,1.7l1.8,0.7l1-1.7
	L230.1,190.2z M232.1,196.1l-1,2.2l2.5,0.5l1-2.2L232.1,196.1z M232.1,196.1l-1,2.2l2.5,0.5l1-2.2L232.1,196.1z M230.1,190.2l-1,1.7
	l1.8,0.7l1-1.7L230.1,190.2z M182.8,193.8l-2.4,1.8l1.2,2.8l2.5-1.8L182.8,193.8z M182.8,193.8l-2.4,1.8l1.2,2.8l2.5-1.8
	L182.8,193.8z M230.1,190.2l-1,1.7l1.8,0.7l1-1.7L230.1,190.2z M232.1,196.1l-1,2.2l2.5,0.5l1-2.2L232.1,196.1z M232.1,196.1l-1,2.2
	l2.5,0.5l1-2.2L232.1,196.1z M230.1,190.2l-1,1.7l1.8,0.7l1-1.7L230.1,190.2z M182.8,193.8l-2.4,1.8l1.2,2.8l2.5-1.8L182.8,193.8z
	 M182.8,193.8l-2.4,1.8l1.2,2.8l2.5-1.8L182.8,193.8z M182.8,193.8l-2.4,1.8l1.2,2.8l2.5-1.8L182.8,193.8z M182.8,193.8l-2.4,1.8
	l1.2,2.8l2.5-1.8L182.8,193.8z M182.8,193.8l-2.4,1.8l1.2,2.8l2.5-1.8L182.8,193.8z M182.8,193.8l-2.4,1.8l1.2,2.8l2.5-1.8
	L182.8,193.8z M182.8,193.8l-2.4,1.8l1.2,2.8l2.5-1.8L182.8,193.8z M182.8,193.8l-2.4,1.8l1.2,2.8l2.5-1.8L182.8,193.8z
	 M182.8,193.8l-2.4,1.8l1.2,2.8l2.5-1.8L182.8,193.8z"/>
<path d="M190.1,48.2l-3.6,1.8l0.6-1.6l-9.2-1.2l-1.6,4.8l2,1.4L176,66.6l5.8,3.7l5.2-5.8l-2.2-2.1l-2,0.1c-0.2-0.4,0.7-2.6,1.3-4.3
	s1.8-4.9,3-3c1,1.7,1.8,4.6,1.8,4.6l3.4-4.2l-0.6-6.2L190.1,48.2L190.1,48.2z"/>
<path d="M269.1,46.4l-3.8,1.4l0.8-1.5l-7.9-2.1l-2.1,4.5l1.8,1.6l-3.6,12.6l5.4,4.2l5.8-5.2l-2-2.2l-2-0.1c-0.1-0.4,0.3-2.5,1.1-4.1
	c0.8-1.6,2-3.9,2.8-2.6c1,1.6,1.3,4.7,1.3,4.7l3.8-3.8v-6.1L269.1,46.4L269.1,46.4z"/>
<path d="M170.3,63.3l-1.6,0.5l3-12.5l-9.6-2.6l-1.2,4.6l2,2l-1.2,13.8l5.6,3.2l4.8-7L170.3,63.3z M169.3,36.2c-2.4,0-4.3,1.8-4.3,4
	s1.9,4,4.3,4c2.4,0,4.2-1.8,4.2-4S171.6,36.2,169.3,36.2z"/>
<path d="M250.6,59.4l-1.6,0.5l3-12.2l-8.8-2.7l-1.2,4.5l2,2l-1.7,13.3l5.3,3.3l4.8-6.8L250.6,59.4z M249.6,32.8
	c-2.3,0-4.2,1.8-4.2,4s1.9,4,4.2,4c2.3,0,4.2-1.8,4.2-4C253.9,34.6,252,32.8,249.6,32.8z"/>
<path d="M223.2,34.4l-9.5,18l-0.9-0.7c0,0-0.2-8.7,0.6-15.4l-9.5,5.7l-0.9,7l-1.6,2.3c0-2.4-0.5-19.1-0.5-19.1l-8.8,6.2l0.2,3.8
	l2,0.2c1,8.5,1.7,19.5,2,22.6l5.9,3.1l4.8-10.9l1.8,11.2l6.5-3.2c0,0,9.7-22.9,11.5-25.6l3.5-0.5l0.7-5.5L223.2,34.4z"/>
<path d="M235.3,59.2c0,0,1-5.3,3.9-12.9l-8.4-1.7l-3.9,4.4l2,1.3l1-0.8l0.7,1.9c-3.8,2.6-8.3,5.6-11.4,9.8l3,6.9l8-2.5l3.7,3
	l4.8-5.8l-1.4-2.7C235.6,61.4,235,60.2,235.3,59.2z M229.5,61.5c0,0-3.1,1.4-4.7,1.8l-1.1-0.1c0-1.9,6.5-6.1,6.5-6.1L229.5,61.5z"/>
<path d="M155.4,70c-0.7-5.5,0.5-29.5,0.7-29.8l-9,2.6l-10.2,27l-2.6-0.4l-1.9,4.6l7.7,5.1l4-10.6l4.3,1c0.4,4.2,1.3,8.8,1.3,8.8
	l8.8-4.4v-4.2L155.4,70z M147.8,63.7l-2.4-0.6l3-8.4L147.8,63.7z"/>
<path d="M281.5,120.8c-11.7,3.4-23.6,6.3-35.6,8.7c1.7,0.8,4.2,1.7,8.5,1c6.2-1.1,21.2-4.9,27.8-6.8L281.5,120.8z M279.4,112.6
	c-13.3,3.8-26.8,7.1-40.5,9.5l1.4,2.7c13.4-2.4,26.7-5.6,39.8-9.4L279.4,112.6z M280.5,116.7c-12.8,3.7-26,6.9-39.2,9.3l2.8,2.4
	c12.5-2.4,24.9-5.4,37-9L280.5,116.7z M278.3,108.3l-15.6,3.9l0.8,3.3c5.2-1.3,10.4-2.7,15.5-4.2L278.3,108.3z M255.6,115.6
	l-1.6-6.1l23.4-6l-3.3-12c-4.1-16-43.7-10.8-39.8,12.8c0.9,5.2,3.1,13.4,3.9,15.8l0.2,0.7c6.2-1.1,12.3-2.3,18.4-3.7l-1.1-1.5H255.6
	z M251.3,98.1c-0.8-4,6-5.8,7.4-1.8l1.4,5.5l-7.5,1.9C252.6,103.7,251.5,99.6,251.3,98.1z M313.4,109.9c-7.7,2.9-15.6,5.7-23.7,8.3
	l1,2.7c2.2-0.7,21.4-7.7,23.6-8.6L313.4,109.9z M334.6,92.1c-6.6,3-13.3,5.8-20.2,8.5l1.1,2.7c6.8-2.7,13.6-5.5,20.1-8.5L334.6,92.1
	z M307.8,84l6.1,15.5c6.9-2.7,13.6-5.5,20.2-8.5l-1.3-3.4c0,0-3,1.5-4.4-1.9c-6.3-14.7-9.5-23.1-21.1-20.3
	c-5.1,1.2-10.5,5.7-12.2,9.5l-1.8-4.8L274,77.6l4.6,11.7c0,0,3.1-1.3,4.6,2.6c1.1,2.6,2.9,7.3,3.8,9.7c1.1,3-1.8,4.9-1.8,4.9l1,2.7
	c8.1-2.5,16.1-5.3,23.9-8.2l-1.3-3.5c0,0-3.4,1-4.6-2.1c-1-2.7-2.3-5.8-3.4-8.7C298.1,79.8,305.3,77.5,307.8,84z M310.5,102.2
	c-7.8,2.9-15.8,5.7-23.9,8.2l1.1,2.8c8.1-2.6,16-5.3,23.8-8.3L310.5,102.2z M337.5,99.7c-6.5,3-13.2,5.9-20.1,8.6l1,2.5
	c3.4-1.4,16.5-6.9,20-8.7L337.5,99.7z M336,96.1c-6.5,3-13.2,5.8-20.1,8.5l1,2.5c6.9-2.7,13.6-5.6,20.1-8.6L336,96.1z M312,106.1
	c-7.8,3-15.7,5.7-23.8,8.3l1,2.6c8.1-2.6,16-5.4,23.8-8.3L312,106.1z M344.2,96.5l1.4,2.7c4.3-2.2,19.8-10.4,21.8-11.5
	c4.2-2.2,6.7-5.1,8.1-8l0.1-0.3C366,85.4,355.4,91.2,344.2,96.5z M350.6,63.3c-5,1.9-6.6,1.4-7.4,0.8l-0.7-1.8
	c0-1.8,3.9-4.1,5.9-3.4l1.7,2c1.9-1,13.7-7.2,13.7-7.2L357,41c0,0-19.7,10.1-21.6,11.3c-4.4,2.6-11.1,9.5-7.4,17.8l2.9,4.5
	c5.4,5.6,13.8,3.5,16.5,2.6c9.1-3,10.6-2.4,11.8-0.2l0.4,1.3c5.6-3.1,11-6.3,16.2-9.5C373.7,63.9,368.7,56.6,350.6,63.3z
	 M352.8,81.5l-1.8-2.8c-1.9,1-12.8,6.7-12.8,6.7l1.6,3c4.6-2.2,9-4.4,13.4-6.7L352.8,81.5z M342.3,93.1l1.2,2.3
	c11.8-5.7,22.8-11.7,32.8-18l0.5-2.9v-0.2C366.3,80.8,354.7,87.2,342.3,93.1z M376.4,70.5l-0.2-0.5c-10.9,6.8-22.9,13.4-35.8,19.4
	l1.3,2.5c12.7-6.1,24.5-12.5,35.1-19.2L376.4,70.5z M174.6,97.4v-5.1h-20.7v12.4c0,0,3.4,0.1,3.4,3.6v10.9c0,3.5-3.4,3.7-3.4,3.7v3
	c10.9,0,19.7-0.1,25.2-0.1v-2.5c0,0-3.4-0.1-3.4-3.6v-9.3c0.1-7.3,7.6-7.5,7.6,0.4v2.8h14c0,0,0-3,0-6.7
	C197.4,90.1,182.6,89,174.6,97.4z M154,135.8v2.8h25.1v-2.9L154,135.8z M153.9,131.5v3c10.9,0,19.7-0.1,25.2-0.1v-3L153.9,131.5z
	 M153.9,127.2v3c10.9,0,19.7-0.1,25.2-0.1v-3L153.9,127.2z M65.3,131.9v3c9.9,0,20.6-0.1,31.5-0.1v-3.1L65.3,131.9z M65.3,136.2v3
	h31.5v-3.1L65.3,136.2z M65.3,127.6v3c9.9,0,20.6-0.1,31.5-0.1v-3L65.3,127.6z M23.6,132.1v3c6.3,0,17.7,0,31.5-0.1v-3L23.6,132.1z
	 M23.6,127.8v3c6.3,0,17.7,0,31.5-0.1v-3L23.6,127.8z M23.6,136.5v2.8h31.5v-2.9L23.6,136.5z M88.1,117.6c-0.1-5.4-0.2-17.7,0-21.8
	c0.2-7.1,8.4-6.8,8.4-6.8V76.2H71.6l-11.4,21l-11.4-21H24V89c0,0,8.5-0.3,8.6,6.8c0.1,4.1,0,16.4,0,21.8c-0.1,5.4-9,5.3-9,5.3v3.6
	c6.3,0,17.6-0.1,31.5-0.1v-3.2c0,0-4.2-0.1-4.2-3.7v-7.6l9.3,11.8l9.3-11.8v7.6c0,3.6-4.2,3.7-4.2,3.7v3.1
	c9.9-0.1,20.6-0.1,31.5-0.2v-3.2C96.8,122.9,88.2,123,88.1,117.6z M144.7,119.4V92.3l-17.3,0.1v5.1c-1.9-3.9-9.9-6.1-15.5-3.6
	c-8.5,3.7-11.8,12.9-11.7,21.7c0,3.6,0.5,7.2,1.8,10.6c16.2-0.1,32.4-0.1,46.1-0.2v-3C148.1,123,144.7,122.9,144.7,119.4z
	 M123.6,123c-2.9,0-5.2-4.2-5.2-9.5s2.3-9.5,5.2-9.5c2.9,0,5.2,4.3,5.2,9.5C128.8,118.8,126.5,123,123.6,123z M109.6,136.1l2.3,1.1
	c4.3,1.9,10,1.1,13.3-1.2L109.6,136.1z M105,131.8l2.8,3c6.3-0.1,12.7-0.1,18.8-0.1l0.7-1v1c7.3,0,14.3-0.1,20.7-0.1h0.1v-3
	L105,131.8z M127.3,136v2.8H148v-2.9L127.3,136z M102.5,127.4l1.6,3c15.5-0.1,30.9-0.2,44-0.2v-3L102.5,127.4z M60.7,24.9
	c0.8,0.7,1.4,1.5,1.7,2.7C62.1,26.4,61.5,25.5,60.7,24.9z M59.9,57.1c1.3-0.7,2.2-1.7,2.4-3.4C62.1,55.3,61.1,56.4,59.9,57.1z
	 M62.3,53.7C62.3,53.7,62.3,53.7,62.3,53.7c0-0.1,0-0.1,0-0.1c0,0,0-0.1,0-0.2v-0.1C62.4,53.5,62.3,53.6,62.3,53.7z M104.4,60.9v9.8
	h8.6v-9.8H104.4z M97.9,44.3V41H84.7v8c0,0,2.1,0.1,2.1,2.3v6.9c0,2.3-2.1,2.4-2.1,2.4v10.1h16.1v-9.8c0,0-2.2-0.1-2.2-2.3v-6
	c0.1-4.7,4.9-4.8,4.9,0.3v1.8h9c0,0,0-1.9,0-4.3C112.5,39.7,103,38.9,97.9,44.3z M59.9,57.1c1.3-0.7,2.2-1.7,2.4-3.4
	C62.1,55.3,61.1,56.4,59.9,57.1z M62.3,53.7C62.3,53.7,62.3,53.7,62.3,53.7c0-0.1,0-0.1,0-0.1c0,0,0-0.1,0-0.2v-0.1
	C62.4,53.5,62.3,53.6,62.3,53.7z M59.9,57.1c1.3-0.7,2.2-1.7,2.4-3.4C62.1,55.3,61.1,56.4,59.9,57.1z M59.9,57.1
	c1.3-0.7,2.2-1.7,2.4-3.4C62.1,55.3,61.1,56.4,59.9,57.1z M59.9,57.1c1.3-0.7,2.2-1.7,2.4-3.4C62.1,55.3,61.1,56.4,59.9,57.1z
	 M59.9,57.1c1.3-0.7,2.2-1.7,2.4-3.4C62.1,55.3,61.1,56.4,59.9,57.1z M59.9,57.1c1.3-0.7,2.2-1.7,2.4-3.4
	C62.1,55.3,61.1,56.4,59.9,57.1z M59.9,57.1c1.3-0.7,2.2-1.7,2.4-3.4C62.1,55.3,61.1,56.4,59.9,57.1z M59.9,57.1
	c1.3-0.7,2.2-1.7,2.4-3.4C62.1,55.3,61.1,56.4,59.9,57.1z M59.9,57.1c1.3-0.7,2.2-1.7,2.4-3.4C62.1,55.3,61.1,56.4,59.9,57.1z
	 M59.9,57.1c1.3-0.7,2.2-1.7,2.4-3.4C62.1,55.3,61.1,56.4,59.9,57.1z M59.9,57.1c1.3-0.7,2.2-1.7,2.4-3.4
	C62.1,55.3,61.1,56.4,59.9,57.1z M72,10.3H24.1v13.3c0,0,8,0,8.4,6.7v20.9c-0.4,6.7-8.4,6.7-8.4,6.7v13.3H72c0,0,9.5,0,9.8-9.9v-41
	C81.5,10.4,72,10.3,72,10.3z M62.4,53c0,0.1,0,0.2,0,0.4c0,0.1,0,0.2,0,0.3c0,0,0,0,0-0.1c-0.7,5.9-10.5,4.8-10.5,4.8V23.1
	c0,0,4.2-0.4,7.4,0.9c0.1,0,0.2,0.1,0.3,0.1c0.2,0.1,0.4,0.2,0.5,0.3c0.1,0.1,0.2,0.1,0.3,0.2c0.1,0.1,0.2,0.2,0.4,0.3
	c0.8,0.7,1.4,1.5,1.7,2.7c0,0.3,0.1,0.6,0.1,0.9V53z M59.9,57.1c1.3-0.7,2.2-1.7,2.4-3.4C62.1,55.3,61.1,56.4,59.9,57.1z M59.9,57.1
	c1.3-0.7,2.2-1.7,2.4-3.4C62.1,55.3,61.1,56.4,59.9,57.1z M59.9,57.1c1.3-0.7,2.2-1.7,2.4-3.4C62.1,55.3,61.1,56.4,59.9,57.1z
	 M59.9,57.1c1.3-0.7,2.2-1.7,2.4-3.4C62.1,55.3,61.1,56.4,59.9,57.1z M59.9,57.1c1.3-0.7,2.2-1.7,2.4-3.4
	C62.1,55.3,61.1,56.4,59.9,57.1z M59.9,57.1c1.3-0.7,2.2-1.7,2.4-3.4C62.1,55.3,61.1,56.4,59.9,57.1z M59.9,57.1
	c1.3-0.7,2.2-1.7,2.4-3.4C62.1,55.3,61.1,56.4,59.9,57.1z M59.9,57.1c1.3-0.7,2.2-1.7,2.4-3.4C62.1,55.3,61.1,56.4,59.9,57.1z
	 M59.9,57.1c1.3-0.7,2.2-1.7,2.4-3.4C62.1,55.3,61.1,56.4,59.9,57.1z M59.9,57.1c1.3-0.7,2.2-1.7,2.4-3.4
	C62.1,55.3,61.1,56.4,59.9,57.1z M232,118.6c0,0-5.4,0.4-6.2-4.2l-1.1-9.2c-0.3-3.6,4-3.6,4-3.6l-1.8-13.3c-1.1,0.1-4.2,0.7-4.6-2.8
	c-0.3-3.1-1.1-10.1-1.1-10.1l-18.3,2.1c0,0,0.9,7.1,1.3,10.1c0.4,3.4-2.7,3.8-3.8,3.9l1.5,13.3c0,0,4.1-1.1,4.7,2.4l1.2,9.2
	c0.3,4.8-5,5.8-5,5.8l0.4,2.9c9.7-0.6,19.5-1.8,29.2-3.3L232,118.6z M233.1,127.5c-9.8,1.5-19.5,2.7-29.2,3.3l0.4,3
	c9.6-0.7,19.4-1.8,29.1-3.4L233.1,127.5z M233.6,131.7c-9.8,1.5-19.5,2.7-29.1,3.4l0.3,2.7c7.1-0.4,24.2-2.3,29.1-3.4L233.6,131.7z
	 M232.6,123.2c-9.7,1.5-19.5,2.7-29.2,3.3l0.4,3c9.7-0.6,19.4-1.8,29.2-3.3L232.6,123.2z M60.7,24.9c0.8,0.7,1.4,1.5,1.7,2.7
	C62.1,26.4,61.5,25.5,60.7,24.9z"/>
</svg>
